{
  "accessors": [
    {
      "bufferView": 3,
      "componentType": 5126,
      "count": 48,
      "max": [
        5.019432067871094,
        2.748044490814209,
        0.8714423179626465
      ],
      "min": [
        -5.019432067871094,
        -0.9604306221008301,
        -1.6315360069274902
      ],
      "type": "VEC3"
    },
    {
      "bufferView": 3,
      "byteOffset": 576,
      "componentType": 5126,
      "count": 48,
      "max": [
        0.8701116442680359,
        -0.4924659729003906,
        0.05427635833621025
      ],
      "min": [
        -0.8701120615005493,
        -0.6421654224395752,
        3.889203071594238e-06
      ],
      "type": "VEC3"
    },
    {
      "bufferView": 2,
      "componentType": 5126,
      "count": 48,
      "max": [
        1.0,
        1.0
      ],
      "min": [
        0.0,
        0.0
      ],
      "type": "VEC2"
    },
    {
      "bufferView": 1,
      "componentType": 5125,
      "count": 108,
      "type": "SCALAR"
    },
    {
      "bufferView": 3,
      "byteOffset": 1152,
      "componentType": 5126,
      "count": 2071,
      "max": [
        288.3230285644531,
        -324.48846435546875,
        -14.384058952331543
      ],
      "min": [
        3.139164924621582,
        -567.8441162109375,
        -331.07012939453125
      ],
      "type": "VEC3"
    },
    {
      "bufferView": 3,
      "byteOffset": 26004,
      "componentType": 5126,
      "count": 2071,
      "max": [
        0.9994279742240906,
        0.9999872446060181,
        0.9987571835517883
      ],
      "min": [
        -0.9999964237213135,
        -0.9985465407371521,
        -0.9989960789680481
      ],
      "type": "VEC3"
    },
    {
      "bufferView": 2,
      "byteOffset": 384,
      "componentType": 5126,
      "count": 2071,
      "max": [
        0.9930703639984131,
        0.9952105283737183
      ],
      "min": [
        0.0005000000237487257,
        0.0005000000237487257
      ],
      "type": "VEC2"
    },
    {
      "bufferView": 1,
      "byteOffset": 432,
      "componentType": 5125,
      "count": 10653,
      "type": "SCALAR"
    },
    {
      "bufferView": 5,
      "componentType": 5126,
      "count": 21,
      "max": [
        1.0,
        0.05191786214709282,
        0.07765721529722214,
        0.0,
        0.09341070801019669,
        1.0,
        0.09341178834438324,
        0.0,
        0.0519898496568203,
        0.0776563435792923,
        1.0,
        0.0,
        45.122806549072266,
        47.80635452270508,
        57.7209358215332,
        1.0
      ],
      "min": [
        -0.032223548740148544,
        -0.09303922206163406,
        -0.034517787396907806,
        0.0,
        -0.008586134761571884,
        -0.05798102170228958,
        -1.725234177740731e-08,
        0.0,
        -0.09192289412021637,
        -0.09201520681381226,
        -1.8933008050225908e-08,
        0.0,
        -31.649028778076172,
        -20.45611000061035,
        -2.347101926803589,
        1.0
      ],
      "type": "MAT4"
    },
    {
      "bufferView": 0,
      "componentType": 5123,
      "count": 2071,
      "type": "VEC4"
    },
    {
      "bufferView": 4,
      "componentType": 5126,
      "count": 2071,
      "max": [
        1.0,
        0.4838709533214569,
        0.29032260179519653,
        0.16129033267498016
      ],
      "min": [
        0.32258063554763794,
        0.0,
        0.0,
        0.0
      ],
      "type": "VEC4"
    }
  ],
  "asset": {
    "extras": {
      "author": "Poyo20 (https://sketchfab.com/poyo20)",
      "license": "CC-BY-4.0 (http://creativecommons.org/licenses/by/4.0/)",
      "source": "https://sketchfab.com/3d-models/seal-animal-rigged-4529f2fe13f64280bcf8be4a030756ca",
      "title": "Seal Animal (Rigged)"
    },
    "generator": "Sketchfab-11.31.0",
    "version": "2.0"
  },
  "bufferViews": [
    {
      "buffer": 0,
      "byteLength": 16568,
      "byteStride": 8,
      "name": "shortBufferViews",
      "target": 34962
    },
    {
      "buffer": 0,
      "byteLength": 43044,
      "byteOffset": 16568,
      "name": "floatBufferViews",
      "target": 34963
    },
    {
      "buffer": 0,
      "byteLength": 16952,
      "byteOffset": 59612,
      "byteStride": 8,
      "name": "floatBufferViews",
      "target": 34962
    },
    {
      "buffer": 0,
      "byteLength": 50856,
      "byteOffset": 76564,
      "byteStride": 12,
      "name": "floatBufferViews",
      "target": 34962
    },
    {
      "buffer": 0,
      "byteLength": 33136,
      "byteOffset": 127420,
      "byteStride": 16,
      "name": "floatBufferViews",
      "target": 34962
    },
    {
      "buffer": 0,
      "byteLength": 1344,
      "byteOffset": 160556,
      "byteStride": 64,
      "name": "floatBufferViews"
    }
  ],
  "buffers": [
    {
      "byteLength": 161900,
      "uri": "scene.bin"
    }
  ],
  "images": [
    {
      "uri": "textures/foca_baseColor.png"
    }
  ],
  "materials": [
    {
      "doubleSided": true,
      "name": "Light_portal_ICE",
      "pbrMetallicRoughness": {
        "baseColorFactor": [
          0.835294,
          1.0,
          1.0,
          1.0
        ],
        "metallicFactor": 0.0,
        "roughnessFactor": 0.8888468343578425
      }
    },
    {
      "doubleSided": true,
      "name": "foca",
      "pbrMetallicRoughness": {
        "baseColorTexture": {
          "index": 0
        },
        "metallicFactor": 0.0,
        "roughnessFactor": 0.973648715349541
      }
    }
  ],
  "meshes": [
    {
      "name": "Plane003_Light_portal_ICE_0",
      "primitives": [
        {
          "attributes": {
            "NORMAL": 1,
            "POSITION": 0,
            "TEXCOORD_0": 2
          },
          "indices": 3,
          "material": 0,
          "mode": 4
        }
      ]
    },
    {
      "name": "Box015_foca_0",
      "primitives": [
        {
          "attributes": {
            "JOINTS_0": 9,
            "NORMAL": 5,
            "POSITION": 4,
            "TEXCOORD_0": 6,
            "WEIGHTS_0": 10
          },
          "indices": 7,
          "material": 1,
          "mode": 4
        }
      ]
    }
  ],
  "nodes": [
    {
      "children": [
        1
      ],
      "matrix": [
        1.0,
        0.0,
        0.0,
        0.0,
        0.0,
        2.220446049250313e-16,
        -1.0,
        0.0,
        0.0,
        1.0,
        2.220446049250313e-16,
        0.0,
        0.0,
        0.0,
        0.0,
        1.0
      ],
      "name": "Sketchfab_model"
    },
    {
      "children": [
        2
      ],
      "matrix": [
        1.0,
        0.0,
        0.0,
        0.0,
        0.0,
        0.0,
        1.0,
        0.0,
        0.0,
        -1.0,
        0.0,
        0.0,
        0.0,
        0.0,
        0.0,
        1.0
      ],
      "name": "Foca.fbx"
    },
    {
      "children": [
        3
      ],
      "name": "RootNode"
    },
    {
      "children": [
        4
      ],
      "matrix": [
        10.705288887023926,
        0.0,
        0.0,
        0.0,
        0.0,
        10.705288887023784,
        1.7441129979860444e-06,
        0.0,
        0.0,
        -1.7441129979860444e-06,
        10.705288887023784,
        0.0,
        0.0,
        -410.0,
        0.0,
        1.0
      ],
      "name": "Armature.001"
    },
    {
      "children": [
        5,
        29,
        28
      ],
      "name": "Object_4"
    },
    {
      "children": [
        6
      ],
      "name": "_rootJoint"
    },
    {
      "children": [
        7
      ],
      "name": "FOCA_boca cerrada_Anim_00",
      "rotation": [
        2.3115192384024773e-24,
        -0.2903938293457031,
        7.616930878478338e-24,
        0.9569072127342224
      ],
      "translation": [
        -1.6030864715576172,
        60.814056396484375,
        13.030338287353516
      ]
    },
    {
      "children": [
        8,
        18
      ],
      "name": "Bone005_01",
      "rotation": [
        -0.02505706623196602,
        0.7066627144813538,
        -0.025057150050997734,
        0.706662654876709
      ],
      "scale": [
        1.0,
        0.9999999403953552,
        1.0
      ],
      "translation": [
        -1.6093254089355469e-06,
        -18.664939880371094,
        -1.397843837738037
      ]
    },
    {
      "children": [
        9
      ],
      "name": "Bone001_02",
      "rotation": [
        -2.962765393021982e-07,
        -6.53156533303445e-08,
        0.915061891078949,
        0.40331345796585083
      ],
      "scale": [
        0.9999997615814209,
        0.9999999403953552,
        1.0
      ],
      "translation": [
        -1.9861814975738525,
        0.6993517875671387,
        -3.4483973649912514e-06
      ]
    },
    {
      "children": [
        10
      ],
      "name": "Bone002_03",
      "rotation": [
        8.242363946919795e-08,
        1.7815764419282232e-09,
        -0.4468429684638977,
        0.8946124315261841
      ],
      "scale": [
        1.0000001192092896,
        1.0,
        1.0000001192092896
      ],
      "translation": [
        3.3469338417053223,
        3.4570693969726563e-06,
        2.9926693514426006e-06
      ]
    },
    {
      "children": [
        11
      ],
      "name": "Bone003_04",
      "rotation": [
        -6.001870644922747e-08,
        -4.1375074033567216e-08,
        0.1256764978170395,
        0.992071270942688
      ],
      "scale": [
        0.9999999403953552,
        0.9999999403953552,
        1.0
      ],
      "translation": [
        7.461134910583496,
        1.9073486328125e-06,
        9.557575140206609e-07
      ]
    },
    {
      "children": [
        12,
        14,
        16
      ],
      "name": "Bone004_05",
      "rotation": [
        1.1929853371839272e-07,
        -3.6953476723056156e-08,
        -2.9103833926180656e-11,
        1.0
      ],
      "scale": [
        1.0,
        0.9999998807907104,
        1.0
      ],
      "translation": [
        7.580943584442139,
        3.159046173095703e-06,
        1.8932836383100948e-06
      ]
    },
    {
      "children": [
        13
      ],
      "name": "Dummy_ojoder_06",
      "rotation": [
        0.7071059346199036,
        0.0011194044491276145,
        0.7071059346199036,
        -0.001121902372688055
      ],
      "scale": [
        0.9985407590866089,
        1.0,
        1.0
      ],
      "translation": [
        -1.48345148563385,
        2.3376169204711914,
        -1.43100106716156
      ]
    },
    {
      "name": "Dummy_ojoder_end_016",
      "rotation": [
        -1.504632769052528e-36,
        5.421010862427522e-20,
        2.7755575615628914e-17,
        1.0
      ],
      "translation": [
        0.0,
        3.116542339324951,
        0.0
      ]
    },
    {
      "children": [
        15
      ],
      "name": "Dummy_ojoizq_07",
      "rotation": [
        0.7070763111114502,
        0.006581837777048349,
        0.7070762515068054,
        -0.006566718220710754
      ],
      "scale": [
        1.008959412574768,
        1.0000001192092896,
        1.0
      ],
      "translation": [
        -1.483451247215271,
        2.3376173973083496,
        1.4310004711151123
      ]
    },
    {
      "name": "Dummy_ojoizq_end_017",
      "rotation": [
        -1.734723475976807e-18,
        -1.3010426069826053e-18,
        5.551115123125783e-17,
        1.0
      ],
      "translation": [
        -8.881784197001252e-16,
        3.1165428161621094,
        0.0
      ]
    },
    {
      "children": [
        17
      ],
      "matrix": [
        0.04952691381877764,
        0.02856529800449728,
        0.9983645745985614,
        0.0,
        -0.14200854039997746,
        -0.989234185360075,
        0.03534882440831507,
        0.0,
        0.9886257627885736,
        -0.14352696287661001,
        -0.04493718389841873,
        0.0,
        -3.5177626609802246,
        2.733870506286621,
        0.010111331939697266,
        1.0
      ],
      "name": "Plane003"
    },
    {
      "mesh": 0,
      "name": "Plane003_Light_portal_ICE_0"
    },
    {
      "children": [
        19
      ],
      "name": "Bone006_08",
      "rotation": [
        -1.5899511041084224e-08,
        -6.08537931157116e-08,
        -0.010579630732536316,
        0.9999440312385559
      ],
      "scale": [
        0.9999999403953552,
        1.0,
        1.0
      ],
      "translation": [
        6.17496395111084,
        1.4156103134155273e-07,
        7.282724254764616e-07
      ]
    },
    {
      "children": [
        20,
        24
      ],
      "name": "Bone007_09",
      "rotation": [
        -1.6302175254168105e-07,
        3.7306499223177525e-08,
        -2.18395129536475e-07,
        1.0
      ],
      "scale": [
        1.0000001192092896,
        1.0,
        1.0
      ],
      "translation": [
        7.137272357940674,
        2.5779008865356445e-06,
        3.7517706914513838e-06
      ]
    },
    {
      "children": [
        21
      ],
      "name": "Bone008_010",
      "rotation": [
        -0.6366460919380188,
        -0.3077038526535034,
        -0.24788247048854828,
        0.662234365940094
      ],
      "scale": [
        1.0,
        0.9999998807907104,
        0.9999999403953552
      ],
      "translation": [
        -1.0371640920639038,
        -0.04580429196357727,
        1.8533928394317627
      ]
    },
    {
      "children": [
        22
      ],
      "name": "Bone009_011",
      "rotation": [
        0.03652574121952057,
        -0.21393775939941406,
        0.16428382694721222,
        0.9622408151626587
      ],
      "scale": [
        1.0000001192092896,
        0.9999999403953552,
        1.0
      ],
      "translation": [
        4.485438823699951,
        -6.360854968079366e-06,
        7.899335514593986e-07
      ]
    },
    {
      "children": [
        23
      ],
      "name": "Bone010_012",
      "rotation": [
        -6.064716728815256e-08,
        2.0489096641540527e-08,
        -4.391306163142872e-08,
        1.0
      ],
      "translation": [
        4.987709045410156,
        1.8091122910846025e-06,
        4.824250936508179e-06
      ]
    },
    {
      "name": "Bone010_end_018",
      "rotation": [
        3.0814879110195774e-33,
        -5.551115123125783e-17,
        5.551115123125783e-17,
        1.0
      ],
      "translation": [
        1.7763568394002505e-15,
        4.987708568572998,
        2.220446049250313e-16
      ]
    },
    {
      "children": [
        25
      ],
      "name": "Bone011_013",
      "rotation": [
        -0.6670970320701599,
        0.2344810962677002,
        0.2948063015937805,
        0.6427203416824341
      ],
      "scale": [
        0.9999999403953552,
        0.9999999403953552,
        1.0000001192092896
      ],
      "translation": [
        -1.073452353477478,
        -0.04914914071559906,
        -1.9734830856323242
      ]
    },
    {
      "children": [
        26
      ],
      "name": "Bone012_014",
      "rotation": [
        -0.02924037165939808,
        -0.2168014794588089,
        -0.1304233968257904,
        0.967022180557251
      ],
      "translation": [
        4.459146022796631,
        2.945980213553412e-06,
        -2.2010112843418028e-07
      ]
    },
    {
      "children": [
        27
      ],
      "name": "Bone013_015",
      "rotation": [
        -6.792824081003346e-10,
        -7.101334631443024e-09,
        4.9549260694448094e-08,
        1.0
      ],
      "translation": [
        4.941949367523193,
        2.5072426979022566e-06,
        -6.690621376037598e-06
      ]
    },
    {
      "name": "Bone013_end_019",
      "rotation": [
        3.469446951953614e-18,
        2.7755575615628914e-17,
        -6.938893903907228e-18,
        1.0
      ],
      "translation": [
        0.0,
        4.941953182220459,
        -4.440892098500626e-16
      ]
    },
    {
      "matrix": [
        8.906979724989434,
        -8.747104759411845e-07,
        5.9543925079507245,
        0.0,
        5.954392507950816,
        1.7624505204312198e-06,
        -8.90697972498931,
        0.0,
        -2.523149378127385e-07,
        10.713966842225965,
        1.95132972098784e-06,
        0.0,
        95.27706646815038,
        -323.8223831305774,
        -97.31104492265955,
        1.0
      ],
      "name": "Object_28"
    },
    {
      "mesh": 1,
      "name": "Object_29",
      "skin": 0
    }
  ],
  "samplers": [
    {
      "magFilter": 9729,
      "minFilter": 9987,
      "wrapS": 10497,
      "wrapT": 10497
    }
  ],
  "scene": 0,
  "scenes": [
    {
      "name": "Sketchfab_Scene",
      "nodes": [
        0
      ]
    }
  ],
  "skins": [
    {
      "inverseBindMatrices": 8,
      "joints": [
        5,
        6,
        7,
        8,
        9,
        10,
        11,
        12,
        13,
        14,
        15,
        18,
        19,
        20,
        21,
        22,
        23,
        24,
        25,
        26,
        27
      ],
      "skeleton": 5
    }
  ],
  "textures": [
    {
      "sampler": 0,
      "source": 0
    }
  ]
}
